# xmcd
#
# Track frame offsets:
#        150
#        28877
#        66026
#        99536
#        110220
#        136118
#        150139
#        180167
#        231581
#
# Disc length: 3241 seconds
#
# Revision: 3
# Processed by: cddbd v1.5.1PL2 Copyright (c) Steve Scherf et al.
# Submitted via: ExactAudioCopy v0.95a5
#
DISCID=6e0ca709
DTITLE=Ulf Wakenius Group - Checkin' In
DYEAR=2004
DGENRE=Jazz
TTITLE0=Will You Make My Soup Hot And Silver
TTITLE1=Mack The Knife
TTITLE2=Footprints
TTITLE3=Ponta De Area
TTITLE4=Soon
TTITLE5=A Child Is Born
TTITLE6=I Didn't Know What Time Is Was
TTITLE7=Little Girl Blue
TTITLE8=The Days Of Wine And Roses
EXTD=
EXTT0=
EXTT1=
EXTT2=
EXTT3=
EXTT4=
EXTT5=
EXTT6=
EXTT7=
EXTT8=
PLAYORDER=
